<svg xmlns="http://www.w3.org/2000/svg" id="Capa_1" height="512" viewBox="0 0 512 512" width="512" fill="#942c13">
	<g>
		<path d="m256 17.75c-4.142 0-7.5 3.358-7.5 7.5v461.5c0 4.142 3.358 7.5 7.5 7.5s7.5-3.358 7.5-7.5v-461.5c0-4.142-3.358-7.5-7.5-7.5z">
		</path>
		<path d="m291.5 88.75c-4.142 0-7.5 3.358-7.5 7.5v319.5c0 4.142 3.358 7.5 7.5 7.5s7.5-3.358 7.5-7.5v-319.5c0-4.142-3.358-7.5-7.5-7.5z">
		</path>
		<path d="m327 390.5c-4.142 0-7.5 3.358-7.5 7.5v44.375c0 4.142 3.358 7.5 7.5 7.5s7.5-3.358 7.5-7.5v-44.375c0-4.142-3.358-7.5-7.5-7.5z">
		</path>
		<path d="m327 62.125c-4.142 0-7.5 3.358-7.5 7.5v292.875c0 4.142 3.358 7.5 7.5 7.5s7.5-3.358 7.5-7.5v-292.875c0-4.142-3.358-7.5-7.5-7.5z">
		</path>
		<path d="m149.5 88.75c-4.142 0-7.5 3.358-7.5 7.5v319.5c0 4.142 3.358 7.5 7.5 7.5s7.5-3.358 7.5-7.5v-319.5c0-4.142-3.358-7.5-7.5-7.5z">
		</path>
		<path d="m220.5 142c-4.142 0-7.5 3.358-7.5 7.5v292.875c0 4.142 3.358 7.5 7.5 7.5s7.5-3.358 7.5-7.5v-292.875c0-4.142-3.358-7.5-7.5-7.5z">
		</path>
		<path d="m220.5 62.125c-4.142 0-7.5 3.358-7.5 7.5v44.375c0 4.142 3.358 7.5 7.5 7.5s7.5-3.358 7.5-7.5v-44.375c0-4.142-3.358-7.5-7.5-7.5z">
		</path>
		<path d="m362.5 142c-4.142 0-7.5 3.358-7.5 7.5v213c0 4.142 3.358 7.5 7.5 7.5s7.5-3.358 7.5-7.5v-213c0-4.142-3.358-7.5-7.5-7.5z">
		</path>
		<path d="m185 142c-4.142 0-7.5 3.358-7.5 7.5v213c0 4.142 3.358 7.5 7.5 7.5s7.5-3.358 7.5-7.5v-213c0-4.142-3.358-7.5-7.5-7.5z">
		</path>
		<path d="m78.5 150.875c-4.142 0-7.5 3.358-7.5 7.5v195.25c0 4.142 3.358 7.5 7.5 7.5s7.5-3.358 7.5-7.5v-195.25c0-4.142-3.358-7.5-7.5-7.5z">
		</path>
		<path d="m398 106.5c-4.142 0-7.5 3.358-7.5 7.5v284c0 4.142 3.358 7.5 7.5 7.5s7.5-3.358 7.5-7.5v-284c0-4.142-3.358-7.5-7.5-7.5z">
		</path>
		<path d="m433.5 195.25c-4.142 0-7.5 3.358-7.5 7.5v106.5c0 4.142 3.358 7.5 7.5 7.5s7.5-3.358 7.5-7.5v-106.5c0-4.142-3.358-7.5-7.5-7.5z">
		</path>
		<path d="m114 186.375c-4.142 0-7.5 3.358-7.5 7.5v124.25c0 4.142 3.358 7.5 7.5 7.5s7.5-3.358 7.5-7.5v-124.25c0-4.142-3.358-7.5-7.5-7.5z">
		</path>
		<path d="m504.5 221.875c-4.142 0-7.5 3.358-7.5 7.5v53.25c0 4.142 3.358 7.5 7.5 7.5s7.5-3.358 7.5-7.5v-53.25c0-4.142-3.358-7.5-7.5-7.5z">
		</path>
		<path d="m43 204.125c-4.142 0-7.5 3.358-7.5 7.5v88.75c0 4.142 3.358 7.5 7.5 7.5s7.5-3.358 7.5-7.5v-88.75c0-4.142-3.358-7.5-7.5-7.5z">
		</path>
		<path d="m7.5 230.75c-4.142 0-7.5 3.358-7.5 7.5v35.5c0 4.142 3.358 7.5 7.5 7.5s7.5-3.358 7.5-7.5v-35.5c0-4.142-3.358-7.5-7.5-7.5z">
		</path>
		<path d="m469 159.75c-4.142 0-7.5 3.358-7.5 7.5v177.5c0 4.142 3.358 7.5 7.5 7.5s7.5-3.358 7.5-7.5v-177.5c0-4.142-3.358-7.5-7.5-7.5z">
		</path>
	</g>
</svg>
