<svg xmlns="http://www.w3.org/2000/svg" id="Layer_1" data-name="Layer 1" viewBox="0 0 64 64" width="512" height="512" fill="#942c13">
	<path d="M41,28a2,2,0,0,0-2-2H38V24H36v2H34V24H32v2H31a2,2,0,0,0-2,2v1H27v2h2v2H27v2h2v1a2,2,0,0,0,2,2h1v2h2V38h2v2h2V38h1a2,2,0,0,0,2-2V35h2V33H41V31h2V29H41ZM31,36V28h8v8Z">
	</path>
	<path d="M35,19A13,13,0,1,0,48,32,13.015,13.015,0,0,0,35,19Zm0,24A11,11,0,1,1,46,32,11.013,11.013,0,0,1,35,43Z">
	</path>
	<path d="M4.5,8A3.5,3.5,0,1,0,1,4.5,3.5,3.5,0,0,0,4.5,8Zm0-5A1.5,1.5,0,1,1,3,4.5,1.5,1.5,0,0,1,4.5,3Z">
	</path>
	<path d="M4.5,35.5A3.5,3.5,0,1,0,1,32,3.5,3.5,0,0,0,4.5,35.5Zm0-5A1.5,1.5,0,1,1,3,32,1.5,1.5,0,0,1,4.5,30.5Z">
	</path>
	<path d="M4.5,63A3.5,3.5,0,1,0,1,59.5,3.5,3.5,0,0,0,4.5,63Zm0-5A1.5,1.5,0,1,1,3,59.5,1.5,1.5,0,0,1,4.5,58Z">
	</path>
	<path d="M4.5,49A3.5,3.5,0,1,0,1,45.5,3.5,3.5,0,0,0,4.5,49Zm0-5A1.5,1.5,0,1,1,3,45.5,1.5,1.5,0,0,1,4.5,44Z">
	</path>
	<path d="M4.5,22A3.5,3.5,0,1,0,1,18.5,3.5,3.5,0,0,0,4.5,22Zm0-5A1.5,1.5,0,1,1,3,18.5,1.5,1.5,0,0,1,4.5,17Z">
	</path>
	<path d="M62.515,31.143l-5-3A1,1,0,0,0,56,29v2H50v2h6v2a1,1,0,0,0,1.515.857l5-3a1,1,0,0,0,0-1.714ZM58,33.234V30.766L60.056,32Z">
	</path>
	<rect x="10" y="31" width="10" height="2">
	</rect>
	<path d="M10,19.5h2.267l2.779,8.8A1,1,0,0,0,16,29h4V27H16.733l-2.779-8.8A1,1,0,0,0,13,17.5H10Z">
	</path>
	<path d="M19,25h3V23H19.739L13.956,4.206A1,1,0,0,0,13,3.5H10v2h2.261l5.783,18.794A1,1,0,0,0,19,25Z">
	</path>
	<path d="M10,46.5h3a1,1,0,0,0,.954-.7L16.733,37H20V35H16a1,1,0,0,0-.954.7l-2.779,8.8H10Z">
	</path>
	<path d="M10,60.5h3a1,1,0,0,0,.956-.706L19.739,41H22V39H19a1,1,0,0,0-.956.706L12.261,58.5H10Z">
	</path>
</svg>
