<svg xmlns="http://www.w3.org/2000/svg" id="Capa_1" height="512" viewBox="0 0 515.197 515.197" width="512" fill="#942c13">
	<g>
		<path d="m490.098 273.147v-154.88c0-17.437-4.215-34.847-12.191-50.349l-13.337 6.862c6.888 13.389 10.529 28.427 10.529 43.487v142.736c-4.703-2.976-9.72-5.496-15-7.483v-125.253c0-31.31-12.984-60.482-35.893-81.306 2.943-2.607 6.057-5.041 9.334-7.277 9.24 6.282 17.217 14.067 23.757 23.194l12.192-8.738c-8.623-12.032-19.403-22.051-32.041-29.779l-3.913-2.393-3.913 2.393c-32.476 19.858-52.65 55.841-52.65 93.906v129.992h-185.603l11.384-18.879c3.29.149 8.06.705 9.989.93 15.167 1.767 40.552 4.723 53.955-17.502 12.819-21.259.144-41.463-8.546-54.201 15.317 1.742 39.103 3.526 51.923-17.734 12.819-21.259.144-41.461-8.546-54.196 15.318 1.741 39.101 3.523 51.919-17.734l26.626-44.156-41.105-24.787-23.936 39.694c-3.29-.149-8.061-.706-9.986-.93-15.167-1.767-40.553-4.725-53.955 17.5-12.819 21.259-.145 41.46 8.546 54.196-15.317-1.741-39.101-3.524-51.92 17.734-12.82 21.261-.142 41.467 8.548 54.204-15.318-1.741-39.106-3.525-51.927 17.736l-26.114 43.307v-49.619c0-15.164-12.336-27.5-27.5-27.5h-18.5v33.438c0 4.136-3.364 7.5-7.5 7.5s-7.5-3.364-7.5-7.5v-55.98l61-.013v-7.499c0-15.987-3.385-31.456-10.062-45.975l-13.628 6.267c4.716 10.256 7.53 21.06 8.399 32.21l-60.709.013v70.978c0 12.407 10.093 22.5 22.5 22.5s22.5-10.093 22.5-22.5v-18.438h3.5c6.893 0 12.5 5.607 12.5 12.5v54.438h-39.172c-16.151 0-31.22 4.686-43.953 12.744v-124.738c0-31.321 15.814-61.01 41.562-78.581 10.345 7.058 19.327 16.21 26.151 26.688l12.569-8.187c-8.883-13.637-20.919-25.334-34.808-33.827l-3.913-2.393-3.913 2.393c-32.476 19.858-52.65 55.841-52.65 93.906v136.88c-14.525 14.872-23.5 35.186-23.5 57.566 0 45.465 36.988 82.453 82.453 82.453h1.047v11.368c-13.68 9.136-22 24.498-22 41.163 0 27.294 22.206 49.5 49.5 49.5s49.5-22.206 49.5-49.5c0-14.254-6.252-27.855-16.883-37.203.001-.099.008-.198.008-.297v-15.031h51.875v-15h-113.045c-37.194 0-67.453-30.259-67.453-67.453s30.259-67.454 67.453-67.454h347.094c37.194 0 67.453 30.26 67.453 67.454s-30.259 67.453-67.453 67.453h-218.548v15h218.547c45.465 0 82.453-36.988 82.453-82.453 0-22.379-8.975-42.693-23.5-57.565zm-343 192.55c0 19.023-15.477 34.5-34.5 34.5s-34.5-15.477-34.5-34.5c0-9.271 3.708-17.952 10.048-24.323 4.892 9.989 15.161 16.886 27.014 16.886 10.389 0 19.563-5.298 24.965-13.333 4.46 5.927 6.973 13.22 6.973 20.77zm-16.875-52.531v15.031c0 8.306-6.757 15.062-15.063 15.062s-15.062-6.757-15.062-15.062v-15.031zm173.088-359.503c7.276.848 13.621 1.486 17.562.688l3.232-.654 19.963-33.106 15.415 9.295-18.881 31.311c-7.78 12.903-22.436 12.319-39.374 10.346-2.716-.317-6.36-.738-9.739-.937l-10.33-17.506c6.535-.998 14.083-.377 22.152.563zm-39.374 10.346c1.061-1.759 2.254-3.26 3.558-4.549 0 0 18.285 30.776 20.508 34.014 9.651 14.06 17.007 26.747 9.225 39.651-1.076 1.784-2.287 3.301-3.613 4.602 0 0-18.15-30.713-20.452-34.067-9.652-14.058-17.008-26.746-9.226-39.651zm-3.989 61.587c2.69.313 6.289.729 9.639.93l10.339 17.523c-6.517.981-14.037.36-22.074-.576-2.717-.317-6.364-.739-9.744-.938l-10.328-17.504c6.54-.999 14.092-.377 22.168.565zm-39.385 10.344c1.06-1.758 2.252-3.258 3.556-4.546 0 0 18.292 30.784 20.511 34.017 9.649 14.06 17.003 26.748 9.223 39.651-1.072 1.778-2.279 3.291-3.6 4.589 0 0-18.241-30.816-20.466-34.058-9.652-14.06-17.006-26.749-9.224-39.653zm-67.729 112.319 24.349-40.379c7.781-12.904 22.435-12.322 39.375-10.349 2.714.316 6.356.737 9.733.936l10.283 17.514c-6.524.987-14.054.367-22.103-.571-7.275-.847-13.619-1.484-17.559-.686l-3.231.654-19.827 32.881zm239.139 0v-129.992c0-22.237 7.978-43.645 21.815-60.484 19.715 17.886 31.31 43.733 31.31 70.484v121.197c-4.539-.777-9.196-1.205-13.953-1.205z">
		</path>
		<path d="m378.098 353.228v-15.031h15.032v-15h-15.032v-15.031h-15v15.031h-15.031v15h15.031v15.031z">
		</path>
		<path d="m422.432 331.03c0-28.765-23.402-52.167-52.167-52.167s-52.167 23.402-52.167 52.167 23.402 52.167 52.167 52.167 52.167-23.402 52.167-52.167zm-89.334 0c0-20.494 16.673-37.167 37.167-37.167s37.167 16.673 37.167 37.167-16.673 37.167-37.167 37.167-37.167-16.673-37.167-37.167z">
		</path>
		<path d="m35.342 325.063h15v14.912h-15z" transform="matrix(.999 -.043 .043 .999 -14.191 2.138)">
		</path>
		<path d="m44.302 297.549h14.918v15h-14.918z" transform="matrix(.625 -.781 .781 .625 -218.775 154.901)">
		</path>
		<path d="m69.062 282.649h14.916v15h-14.916z" transform="matrix(.983 -.185 .185 .983 -52.346 19.159)">
		</path>
	</g>
</svg>
