<svg xmlns="http://www.w3.org/2000/svg" xmlns:xlink="http://www.w3.org/1999/xlink" id="Capa_1" x="0px" y="0px" viewBox="0 0 512 512" style="enable-background:new 0 0 512 512;" xml:space="preserve" fill="#ffffff">
	<g>
		<g>
			<path d="M469.315,128.76h-14.391c-0.01-0.024-0.02-0.049-0.029-0.073l-2.761-6.739c-0.018-0.044-0.036-0.087-0.055-0.131 c0.001-0.007,0.002-0.015,0.003-0.021l10.225-10.303c4.832-4.869,4.832-12.793,0-17.663l-19.206-19.352 c-2.355-2.374-5.497-3.682-8.846-3.682s-6.49,1.308-8.845,3.681l-10.183,10.259c-0.024-0.011-0.049-0.021-0.074-0.031 l-6.638-2.762c-0.032-0.014-0.065-0.026-0.098-0.04c-0.002-0.003-0.004-0.006-0.006-0.009v-14.6c0-6.892-5.607-12.5-12.5-12.5 h-27.122c-6.893,0-12.5,5.608-12.5,12.5v14.6c-0.002,0.003-0.004,0.006-0.006,0.009c-0.033,0.014-0.065,0.026-0.098,0.04 l-6.637,2.762c-0.025,0.011-0.049,0.021-0.074,0.031l-10.181-10.26c-2.356-2.373-5.497-3.68-8.845-3.68 c-3.275,0-6.346,1.258-8.683,3.532c-18.574-7.055-38.684-10.929-59.678-10.929c-93.546,0-169.652,76.663-169.652,170.895 c0,34.913,10.383,68.489,30.028,97.1c18.22,26.535,43.171,47.143,72.386,59.844v27.844c-6.687,2.463-11.478,8.879-11.478,16.41 v16.271c0,9.649,7.851,17.5,17.5,17.5h10.938v26.34c0,9.042,7.341,16.397,16.364,16.397h67.829 c9.023,0,16.364-7.355,16.364-16.397v-26.34h10.938c9.649,0,17.5-7.851,17.5-17.5v-16.271c0-7.531-4.792-13.948-11.479-16.41 v-27.843c37.992-16.51,68.5-46.19,86.252-84.055c1.758-3.75,0.143-8.216-3.607-9.975c-3.751-1.759-8.217-0.143-9.974,3.607 c-15.251,32.529-40.814,58.433-72.671,73.912v-40.677h1.684c6.893,0,12.5-5.607,12.5-12.5v-19.544c0-6.893-5.607-12.5-12.5-12.5 h-19.075c-6.893,0-12.5,5.607-12.5,12.5v19.544c0,6.893,5.607,12.5,12.5,12.5h2.392v83.939h-10.922v-57.538 c0-4.765-2.344-10.452-5.698-13.832l-56.574-57.008l2.408-2.427c4.832-4.869,4.832-12.793,0-17.663l-13.516-13.619 c-2.355-2.374-5.497-3.682-8.846-3.682s-6.49,1.308-8.845,3.681l-13.689,13.794c-4.832,4.869-4.832,12.793,0,17.663l13.516,13.619 c2.355,2.374,5.497,3.682,8.846,3.682s6.49-1.308,8.845-3.681l0.714-0.72l56.493,56.926c0.553,0.576,1.333,2.471,1.347,3.267 v57.538h-15.506V355c0-4.143-3.358-7.5-7.5-7.5c-4.142,0-7.5,3.357-7.5,7.5v62.991H235.21v-53.653h2.038 c6.893,0,12.5-5.607,12.5-12.5v-19.544c0-6.893-5.607-12.5-12.5-12.5h-19.075c-6.893,0-12.5,5.607-12.5,12.5v19.544 c0,6.893,5.607,12.5,12.5,12.5h2.037v53.653h-10.36V386.24c0-3.068-1.869-5.826-4.717-6.965 c-28.484-11.38-52.794-30.874-70.303-56.373c-17.921-26.1-27.394-56.74-27.394-88.608c0-85.961,69.376-155.895,154.652-155.895 c16.745,0,32.871,2.711,47.984,7.697l-7.674,7.733c-4.832,4.869-4.832,12.793,0,17.662l10.223,10.304 c0.001,0.007,0.003,0.015,0.003,0.021c-0.019,0.043-0.037,0.087-0.055,0.13l-2.761,6.738c-0.01,0.025-0.02,0.05-0.03,0.074 h-14.391c-6.893,0-12.5,5.607-12.5,12.5v27.408c0,6.893,5.607,12.5,12.5,12.5h14.391c0.01,0.024,0.02,0.05,0.03,0.074l2.76,6.736 c0.018,0.044,0.036,0.087,0.055,0.131c0,0.007-0.002,0.013-0.003,0.02l-10.223,10.305c-4.831,4.868-4.832,12.792,0,17.663 l19.206,19.357c2.355,2.372,5.497,3.679,8.845,3.679c3.348,0,6.489-1.307,8.846-3.681l10.18-10.26 c0.025,0.01,0.049,0.021,0.074,0.031l6.637,2.762c0.033,0.014,0.065,0.026,0.098,0.04c0.002,0.003,0.004,0.006,0.006,0.009v14.6 c0,6.893,5.607,12.5,12.5,12.5h27.123c6.893,0,12.5-5.607,12.5-12.5v-14.6c0.002-0.003,0.004-0.006,0.006-0.009 c0.033-0.014,0.066-0.027,0.099-0.041l6.638-2.763c0.025-0.01,0.049-0.02,0.074-0.031l1.311,1.321 c0.128,2.578,0.2,5.172,0.2,7.782c0,6.935-0.456,13.908-1.354,20.727c-0.541,4.107,2.349,7.874,6.456,8.415 c4.108,0.546,7.874-2.349,8.415-6.456c0.787-5.97,1.248-12.046,1.408-18.12c0.843,0.177,1.709,0.273,2.592,0.273 c3.348,0,6.489-1.307,8.846-3.681l19.207-19.356c4.831-4.869,4.831-12.793-0.001-17.663l-10.224-10.301 c-0.001-0.007-0.003-0.015-0.003-0.022c0.018-0.043,0.037-0.086,0.054-0.129l2.761-6.738c0.01-0.024,0.02-0.05,0.03-0.074h14.391 c6.893,0,12.5-5.607,12.5-12.5V141.26C481.815,134.367,476.208,128.76,469.315,128.76z M221.004,288.598l-9.993-10.07 l10.166-10.243l9.993,10.07L221.004,288.598z M296.001,497h-67.829c-0.739,0-1.364-0.64-1.364-1.397v-5.847h70.557v5.847h0 C297.365,496.361,296.74,497,296.001,497z M297.365,474.756h-70.557v-5.493h70.557V474.756z M314.432,304.508h14.075v14.544 h-14.075V304.508z M220.671,334.794h14.075v14.544h-14.075V334.794z M198.37,435.491c0-1.355,1.145-2.5,2.5-2.5h122.433 c1.355,0,2.5,1.145,2.5,2.5v16.271c0,1.355-1.145,2.5-2.5,2.5H200.87c-1.355,0-2.5-1.145-2.5-2.5V435.491z M466.815,166.168 h-12.241c-5.914,0-11.6,4.001-13.626,9.549l-2.622,6.4c-2.455,5.342-1.267,12.17,2.879,16.348l8.734,8.8l-15.684,15.807 l-8.656-8.725c-2.638-2.656-6.44-4.18-10.434-4.18c-2.099,0-4.149,0.441-5.949,1.279l-6.299,2.621 c-5.524,2.049-9.506,7.736-9.506,13.634v12.433h-22.122v-12.433c0-5.898-3.982-11.585-9.506-13.634l-6.301-2.621 c-1.799-0.837-3.848-1.278-5.946-1.278c-3.994,0-7.797,1.524-10.436,4.183l-8.652,8.721l-15.684-15.807l8.735-8.804 c4.146-4.177,5.333-11.005,2.877-16.347l-2.622-6.398c-2.027-5.549-7.712-9.549-13.626-9.549h-12.242V143.76h12.242 c5.914,0,11.6-4,13.626-9.55l2.622-6.4c2.455-5.341,1.267-12.17-2.878-16.347l-8.734-8.803l15.683-15.803l8.654,8.721 c2.638,2.656,6.441,4.181,10.435,4.181c2.098,0,4.147-0.441,5.946-1.278l6.301-2.621c5.524-2.049,9.506-7.736,9.506-13.634V69.794 h22.123v12.433c0,5.897,3.982,11.586,9.507,13.634l6.298,2.62c1.8,0.838,3.85,1.279,5.949,1.279c3.995,0,7.798-1.524,10.434-4.182 l8.655-8.72l15.684,15.803l-8.735,8.802c-4.145,4.177-5.333,11.005-2.878,16.346l2.622,6.402 c2.027,5.548,7.712,9.549,13.626,9.549h12.241V166.168z">
			</path>
		</g>
	</g>
	<g>
		<g>
			<path d="M431.528,138.666c-1.288-3.937-5.525-6.085-9.461-4.796c-3.937,1.288-6.084,5.523-4.795,9.46 c1.222,3.736,1.842,7.65,1.842,11.634c0,20.457-16.492,37.1-36.763,37.1s-36.762-16.643-36.762-37.1 c0-20.457,16.491-37.101,36.762-37.101c4.17,0,8.258,0.697,12.151,2.072c3.907,1.377,8.19-0.67,9.569-4.575 c1.379-3.905-0.668-8.189-4.574-9.569c-5.502-1.942-11.271-2.928-17.146-2.928c-28.542,0-51.762,23.372-51.762,52.101 c0,28.728,23.22,52.1,51.762,52.1s51.763-23.372,51.763-52.1C434.114,149.394,433.244,143.91,431.528,138.666z">
			</path>
		</g>
	</g>
	<g>
		<g>
			<path d="M382.351,128.61c-14.453,0-26.21,11.822-26.21,26.354c0,14.531,11.758,26.354,26.21,26.354 c14.453,0,26.21-11.822,26.21-26.354C408.562,140.433,396.804,128.61,382.351,128.61z M382.351,166.317 c-6.182,0-11.21-5.093-11.21-11.354c0-6.261,5.029-11.354,11.21-11.354c6.182,0,11.21,5.093,11.21,11.354 C393.562,161.225,388.533,166.317,382.351,166.317z">
			</path>
		</g>
	</g>
	<g>
		<g>
			<path d="M274.933,201.972h-19.075c-6.893,0-12.5,5.607-12.5,12.5v19.544c0,6.893,5.607,12.5,12.5,12.5h2.038v46.483 c0,4.143,3.358,7.5,7.5,7.5c4.142,0,7.5-3.357,7.5-7.5v-46.483h2.037c6.893,0,12.5-5.607,12.5-12.5v-19.544 C287.433,207.579,281.826,201.972,274.933,201.972z M272.433,231.516h-14.075v-14.544h14.075V231.516z">
			</path>
		</g>
	</g>
	<g>
		<g>
			<path d="M265.395,0c-4.142,0-7.5,3.357-7.5,7.5v20.898c0,4.143,3.358,7.5,7.5,7.5c4.142,0,7.5-3.357,7.5-7.5V7.5 C272.895,3.357,269.537,0,265.395,0z">
			</path>
		</g>
	</g>
	<g>
		<g>
			<path d="M212.322,35.716l-5.978-20.02c-1.186-3.97-5.364-6.227-9.333-5.041c-3.969,1.186-6.226,5.363-5.04,9.332l5.977,20.02 c0.972,3.254,3.954,5.356,7.184,5.356c0.71,0,1.433-0.102,2.149-0.315C211.25,43.862,213.507,39.685,212.322,35.716z">
			</path>
		</g>
	</g>
	<g>
		<g>
			<path d="M156.386,60.177l-11.452-17.454c-2.272-3.464-6.922-4.428-10.385-2.156c-3.463,2.273-4.429,6.922-2.156,10.385 l11.453,17.453c1.44,2.195,3.835,3.387,6.277,3.387c1.412,0,2.839-0.398,4.107-1.23C157.693,68.29,158.659,63.64,156.386,60.177z">
			</path>
		</g>
	</g>
	<g>
		<g>
			<path d="M109.801,99.725L93.838,86.304c-3.171-2.667-7.902-2.257-10.567,0.913c-2.666,3.171-2.257,7.902,0.914,10.567 l15.962,13.421c1.406,1.183,3.119,1.76,4.823,1.76c2.138,0,4.261-0.909,5.745-2.673 C113.381,107.121,112.971,102.39,109.801,99.725z">
			</path>
		</g>
	</g>
	<g>
		<g>
			<path d="M76.479,151.029l-19.128-8.256c-3.804-1.642-8.217,0.11-9.858,3.914c-1.641,3.802,0.111,8.215,3.914,9.857l19.128,8.256 c0.969,0.418,1.977,0.616,2.968,0.616c2.903,0,5.667-1.695,6.89-4.53C82.034,157.083,80.282,152.67,76.479,151.029z">
			</path>
		</g>
	</g>
	<g>
		<g>
			<path d="M59.23,209.771l-20.684-2.395c-4.116-0.479-7.836,2.474-8.313,6.588c-0.477,4.114,2.473,7.836,6.588,8.313l20.684,2.395 c0.293,0.034,0.583,0.051,0.872,0.051c3.756,0,6.999-2.817,7.441-6.639C66.295,213.97,63.345,210.248,59.23,209.771z">
			</path>
		</g>
	</g>
	<g>
		<g>
			<path d="M68.211,277.077c-0.729-4.078-4.625-6.791-8.704-6.063l-20.499,3.667c-4.077,0.729-6.792,4.626-6.062,8.703 c0.649,3.631,3.811,6.181,7.374,6.181c0.438,0,0.883-0.038,1.33-0.118l20.499-3.667C66.226,285.051,68.94,281.154,68.211,277.077z ">
			</path>
		</g>
	</g>
	<g>
		<g>
			<path d="M87.372,332.898c-1.872-3.694-6.387-5.17-10.08-3.3l-18.587,9.419c-3.695,1.873-5.172,6.386-3.3,10.08 c1.322,2.608,3.959,4.112,6.696,4.112c1.14,0,2.298-0.262,3.384-0.812l18.587-9.419C87.767,341.105,89.244,336.592,87.372,332.898 z">
			</path>
		</g>
	</g>
	<g>
		<g>
			<path d="M121.69,380.851c-2.855-3.001-7.602-3.118-10.603-0.264l-15.111,14.379c-3.001,2.855-3.119,7.603-0.263,10.604 c1.474,1.55,3.452,2.33,5.434,2.33c1.857,0,3.718-0.686,5.169-2.066l15.111-14.379C124.428,388.6,124.546,383.852,121.69,380.851z ">
			</path>
		</g>
	</g>
	<g>
		<g>
			<path d="M206.035,185.052H186.96c-6.893,0-12.5,5.607-12.5,12.5v19.544c0,6.893,5.607,12.5,12.5,12.5h19.075 c6.893,0,12.5-5.607,12.5-12.5v-19.544C218.535,190.659,212.928,185.052,206.035,185.052z M203.535,214.596H189.46v-14.544h14.075 V214.596z">
			</path>
		</g>
	</g>
	<g>
		<g>
			<path d="M240.249,127.571h-19.075c-6.893,0-12.5,5.607-12.5,12.5v19.544c0,6.893,5.607,12.5,12.5,12.5h19.075 c6.893,0,12.5-5.607,12.5-12.5v-19.544C252.749,133.178,247.142,127.571,240.249,127.571z M237.749,157.115h-14.075v-14.544 h14.075V157.115z">
			</path>
		</g>
	</g>
	<g>
	</g>
	<g>
	</g>
	<g>
	</g>
	<g>
	</g>
	<g>
	</g>
	<g>
	</g>
	<g>
	</g>
	<g>
	</g>
	<g>
	</g>
	<g>
	</g>
	<g>
	</g>
	<g>
	</g>
	<g>
	</g>
	<g>
	</g>
	<g>
	</g>
</svg>
