<svg xmlns="http://www.w3.org/2000/svg" id="Capa_1" height="512" viewBox="0 0 512 512" width="512" fill="#942c13">
	<g>
		<path d="m511.577 188.487c-.89-2.534-3.066-4.398-5.707-4.889l-338.895-62.957c-12.757-2.367-25.064 6.081-27.435 18.838l-11.713 63.051c-2.37 12.757 6.081 25.064 18.838 27.435l.508.094-1.558 8.389c-2.37 12.757 6.081 25.064 18.839 27.435l11.902 2.211v31.054c-4.981 5.58-8.016 12.932-8.016 20.983 0 6.065 1.725 11.734 4.703 16.548h-125.979v-.516c0-12.976-10.557-23.532-23.532-23.532h-16.032c-4.142 0-7.5 3.358-7.5 7.5v128.258c0 4.142 3.358 7.5 7.5 7.5h16.032c12.976 0 23.532-10.557 23.532-23.532v-32.581h120.758c21.816 0 39.564-17.749 39.564-39.565v-9.44c13.786-3.375 24.048-15.829 24.048-30.64 0-8.051-3.035-15.403-8.016-20.983v-22.31l224.76 41.754c1.447.269 2.887.398 4.308.398 11.112 0 21.025-7.926 23.126-19.237l15.108-81.324 19.457-22.557c1.756-2.035 2.289-4.851 1.4-7.385zm-479.513 243.868c0 4.705-3.828 8.532-8.532 8.532h-8.532v-113.258h8.532c4.705 0 8.532 3.828 8.532 8.532zm160.323-72.145c0 13.545-11.02 24.565-24.564 24.565h-120.759v-33.097h145.323zm7.5-23.533c-9.125 0-16.548-7.423-16.548-16.548s7.423-16.548 16.548-16.548 16.548 7.423 16.548 16.548-7.423 16.548-16.548 16.548zm-8.532-46.914v-18.884l17.064 3.17v15.713c-2.716-.764-5.575-1.182-8.532-1.182s-5.816.418-8.532 1.183zm243.749-29.822c-3.829 4.439-9.789 6.531-15.553 5.46l-207.095-38.472c-4.071-.755-7.987 1.932-8.744 6.004-.756 4.072 1.932 7.987 6.004 8.744l207.094 38.472c1.903.354 3.816.526 5.719.526 9.083 0 17.896-3.939 23.933-10.937l24.814-28.767-10.411 56.041c-.859 4.625-5.322 7.69-9.947 6.83l-283.726-52.708c-2.241-.416-4.185-1.68-5.475-3.559s-1.771-4.148-1.355-6.388l1.558-8.388 16.271 3.023c4.077.757 7.987-1.931 8.744-6.004.756-4.073-1.932-7.987-6.004-8.744l-31.526-5.857c-2.241-.416-4.185-1.68-5.475-3.559s-1.771-4.147-1.355-6.388l11.713-63.051c.416-2.24 1.68-4.185 3.559-5.475 1.878-1.291 4.146-1.772 6.388-1.355l326.057 60.572z">
		</path>
		<path d="m159.807 88.177c-30.656 0-55.597 24.941-55.597 55.597 0 4.142 3.358 7.5 7.5 7.5s7.5-3.358 7.5-7.5c0-22.385 18.212-40.597 40.597-40.597 4.142 0 7.5-3.358 7.5-7.5s-3.358-7.5-7.5-7.5z">
		</path>
		<path d="m79.645 151.275c4.142 0 7.5-3.358 7.5-7.5 0-40.066 32.596-72.662 72.662-72.662 4.142 0 7.5-3.358 7.5-7.5s-3.358-7.5-7.5-7.5c-48.337 0-87.662 39.325-87.662 87.662 0 4.142 3.358 7.5 7.5 7.5z">
		</path>
	</g>
</svg>
